HIERARCHY
ROOT Hips
{
	OFFSET 0.00000 0.00000 0.00000
	CHANNELS 6 Xposition Yposition Zposition Yrotation Zrotation Xrotation 
	JOINT Lumbar
	{
		OFFSET 0 0 0
		CHANNELS 3 Zrotation Xrotation Yrotation
		JOINT Neck
		{
			OFFSET 0.00 0.2701 0.00
			CHANNELS 3 Zrotation Xrotation Yrotation
			End Site
			{
				OFFSET 0.00 0.1379 0.00
			}
		}
		JOINT RightShoulder
		{
			OFFSET 0.0119 0.2289 0.1181
			CHANNELS 3 Zrotation Xrotation Yrotation
			JOINT RightElbow
			{
				OFFSET 0.00 -0.1475 0.00
				CHANNELS 2 Zrotation Yrotation
				JOINT RightWrist
				{
					OFFSET 0.00 -0.1605 0.00
					CHANNELS 2 Zrotation Xrotation
					End Site
					{
						OFFSET 0.0040 -0.1068 0.0006
					}
				}
			}
		}
		JOINT LeftShoulder
		{
			OFFSET 0.0119 0.2289 -0.1181
			CHANNELS 3 Zrotation Xrotation Yrotation
			JOINT LeftElbow
			{
				OFFSET 0.00 -0.1475 0.00
				CHANNELS 2 Zrotation Yrotation
				JOINT LeftWrist
				{
					OFFSET 0.00 -0.1605 0.00
					CHANNELS 2 Zrotation Xrotation
					End Site
					{
						OFFSET 0.0040 -0.1068 -0.0006
					}
				}
			}
		}
	}
	JOINT RightHip
	{
		OFFSET 0.0316 -0.0424 0.0458
		CHANNELS 3 Zrotation Xrotation Yrotation
		JOINT RightKnee
		{
			OFFSET 0.00 -0.2438 0.00
			CHANNELS 1 Zrotation
			JOINT RightAnkle
			{
				OFFSET 0.00 -0.2449 0.00
				CHANNELS 3 Zrotation Xrotation Yrotation
				End Site
				{
					OFFSET 0.1237 -0.0542 0.0051
				}
			}
		}
	}
	JOINT LeftHip
	{
		OFFSET 0.0316 -0.0424 -0.0458
		CHANNELS 3 Zrotation Xrotation Yrotation
		JOINT LeftKnee
		{
			OFFSET 0.00 -0.2438 0.00
			CHANNELS 1 Zrotation
			JOINT LeftAnkle
			{
				OFFSET 0.00 -0.2449 0.00
				CHANNELS 3 Zrotation Xrotation Yrotation
				End Site
				{
					OFFSET 0.1237 -0.0542 -0.0051
				}
			}
		}
	}
}
MOTION
Frames: 16
Frame Time: 0.02
0.00018 3e-05 -9e-05 19.261 -36.04111 -2.66118 57.16585 0.60502 0.64012 -5.44998 -1.70433 -0.14077 138.47781 -74.27938 -76.57281 11.81913 88.92642 -4.65861 -10.87044 151.22879 72.10464 83.09419 10.78223 -94.45911 -3.45098 16.12607 50.37087 0.27855 -4.19674 -18.73617 -8.34659 -5.48938 -3.62989 54.85361 0.8542 2.88721 -24.00023 -8.89998 5.11272 3.53142
0.00013 2e-05 -0.00011 19.30863 -36.02452 -2.6595 57.15949 0.59501 0.61469 -5.46564 -1.71405 -0.14044 138.72707 -74.24311 -76.39625 11.81526 88.93368 -4.63789 -10.86697 151.23903 72.11581 83.10496 10.7817 -94.45806 -3.43293 16.10876 50.34864 0.21417 -4.53491 -18.74012 -8.31284 -5.45917 -3.61343 54.83797 0.90528 3.18018 -24.00172 -8.87378 5.09415 3.51198
7e-05 1e-05 -0.00012 19.35615 -36.00797 -2.65783 57.15314 0.58502 0.58935 -5.48126 -1.72375 -0.14012 138.97572 -74.20689 -76.22012 11.81136 88.94092 -4.61723 -10.86349 151.24914 72.12694 83.11582 10.78113 -94.45704 -3.41495 16.09145 50.32648 0.14999 -4.87202 -18.74406 -8.2792 -5.42906 -3.59702 54.82237 0.95623 3.47233 -24.00321 -8.84764 5.07562 3.49259
1e-05 0 -0.00014 19.40364 -35.99143 -2.65615 57.1468 0.57503 0.564 -5.49687 -1.73344 -0.13979 139.22426 -74.17072 -76.04406 11.8075 88.94817 -4.59658 -10.86003 151.25935 72.13807 83.12654 10.78061 -94.45601 -3.39696 16.07419 50.30432 0.08581 -5.20914 -18.748 -8.24555 -5.39895 -3.58061 54.80678 1.00716 3.76441 -24.0047 -8.82152 5.0571 3.47321
-5e-05 -1e-05 -0.00015 19.45123 -35.97486 -2.65447 57.14045 0.56503 0.53858 -5.5125 -1.74315 -0.13946 139.47329 -74.13451 -75.86766 11.80364 88.95543 -4.57586 -10.85659 151.26967 72.14923 83.1372 10.78011 -94.45493 -3.37891 16.05693 50.28208 0.02144 -5.54734 -18.75195 -8.2118 -5.36875 -3.56415 54.79113 1.05823 4.05727 -24.0062 -8.79534 5.03856 3.45378
-0.00011 -2e-05 -0.00017 19.49857 -35.95835 -2.65283 57.13411 0.55506 0.51339 -5.52811 -1.75282 -0.13914 139.72106 -74.09829 -75.69214 11.79965 88.96261 -4.55534 -10.85303 151.27934 72.1603 83.14855 10.77937 -94.45405 -3.36107 16.03952 50.26007 -0.04232 -5.88216 -18.75588 -8.17838 -5.33882 -3.54785 54.77565 1.1089 4.34792 -24.00768 -8.76928 5.02005 3.43449
-0.00016 -3e-05 -0.00018 19.54638 -35.94174 -2.6511 57.12776 0.54503 0.48775 -5.54376 -1.76257 -0.13881 139.97127 -74.06214 -75.51491 11.79598 88.96999 -4.53444 -10.84972 151.29039 72.17155 83.15827 10.7792 -94.4528 -3.34284 16.02247 50.23765 -0.10724 -6.22333 -18.75985 -8.14435 -5.30839 -3.53124 54.75985 1.16031 4.64268 -24.00919 -8.743 5.00149 3.41494
-0.00022 -4e-05 -0.0002 19.59373 -35.9252 -2.64945 57.1214 0.53506 0.46256 -5.55935 -1.77224 -0.13848 140.21892 -74.02588 -75.33951 11.79194 88.97709 -4.51388 -10.84614 151.30004 72.1826 83.16991 10.77837 -94.4518 -3.32493 16.00502 50.2156 -0.17111 -6.55878 -18.76378 -8.11086 -5.27841 -3.51491 54.74434 1.21106 4.93369 -24.01067 -8.71694 4.98298 3.39563
-0.00028 -5e-05 -0.00021 19.64065 -35.90882 -2.6479 57.11511 0.52514 0.43778 -5.57493 -1.78184 -0.13816 140.46479 -73.98963 -75.16523 11.78776 88.98426 -4.49379 -10.84237 151.30845 72.19354 83.18227 10.77724 -94.45148 -3.30754 15.98733 50.19403 -0.23366 -6.88685 -18.76766 -8.07808 -5.24902 -3.49897 54.72922 1.26096 5.22006 -24.01214 -8.69111 4.96451 3.37659
-0.00033 -6e-05 -0.00023 19.69042 -35.89175 -2.6458 57.10864 0.51486 0.41023 -5.59076 -1.79193 -0.13783 140.72496 -73.95375 -74.98115 11.78532 88.99226 -4.47115 -10.84015 151.32544 72.20553 83.18558 10.77936 -94.44837 -3.28758 15.97175 50.16976 -0.30369 -7.25625 -18.77181 -8.04135 -5.21633 -3.48092 54.71198 1.3156 5.53301 -24.01372 -8.66384 4.94573 3.35594
-0.0004 -7e-05 -0.00024 19.73395 -35.87599 -2.64485 57.10243 0.50539 0.38876 -5.60596 -1.80091 -0.1375 140.95234 -73.91685 -74.8199 11.77859 88.99771 -4.45378 -10.83437 151.3234 72.21505 83.2111 10.77365 -94.45043 -3.27277 15.95126 50.15113 -0.358 -7.53913 -18.77542 -8.0129 -5.19055 -3.46726 54.69911 1.36032 5.78994 -24.01507 -8.63966 4.92765 3.3387
-0.00051 -9e-05 -0.00023 19.76191 -35.86486 -2.64704 57.09792 0.49785 0.38239 -5.62019 -1.80742 -0.13716 141.10933 -73.87897 -74.70551 11.76445 88.99918 -4.45096 -10.82022 151.27416 72.21962 83.26989 10.75348 -94.47027 -3.27448 15.91972 50.14853 -0.36811 -7.57655 -18.77729 -8.00783 -5.1843 -3.46613 54.69907 1.37707 5.89099 -24.01577 -8.62362 4.91113 3.33086
-0.00064 -0.00012 -0.00021 19.78326 -35.8548 -2.6504 57.09344 0.49119 0.38248 -5.63359 -1.81269 -0.13681 141.22892 -73.83967 -74.61791 11.74465 88.99522 -4.45282 -10.80169 151.20352 72.22122 83.35415 10.72352 -94.49292 -3.28106 15.88192 50.15146 -0.36261 -7.52853 -18.77866 -8.01095 -5.18488 -3.46934 54.70323 1.38401 5.9361 -24.01625 -8.61076 4.89537 3.32646
-0.00076 -0.00014 -0.00019 19.80665 -35.8436 -2.65322 57.08835 0.48435 0.38058 -5.64699 -1.81817 -0.13647 141.35394 -73.79993 -74.52714 11.72532 88.99467 -4.45318 -10.78493 151.14109 72.22324 83.44736 10.69421 -94.51413 -3.28363 15.84651 50.15153 -0.36498 -7.52492 -18.78042 -8.00988 -5.18198 -3.47026 54.70493 1.39592 6.00833 -24.01687 -8.59667 4.87947 3.32047
-0.00087 -0.00016 -0.00018 19.83428 -35.83531 -2.65602 57.08596 0.47661 0.37446 -5.66228 -1.82517 -0.13612 141.53122 -73.76507 -74.39449 11.71714 88.99954 -4.45326 -10.77132 151.09058 72.22986 83.46206 10.68343 -94.54306 -3.29311 15.8166 50.15317 -0.36411 -7.49779 -18.78146 -8.01081 -5.1807 -3.47249 54.70907 1.40563 6.07364 -24.01733 -8.58164 4.86266 3.31455
-0.001 -0.00019 -0.00015 19.85129 -35.82101 -2.65919 57.07775 0.47091 0.37898 -5.67305 -1.82865 -0.13579 141.5864 -73.71934 -74.36034 11.68155 88.98004 -4.45209 -10.7473 151.00322 72.22535 83.63616 10.62861 -94.54777 -3.29018 15.76925 50.15273 -0.36619 -7.49909 -18.7839 -8.00953 -5.17765 -3.47304 54.70899 1.41761 6.13967 -24.01808 -8.56939 4.84798 3.30934
